<?xml version="1.0" standalone="no"?>
<!DOCTYPE svg PUBLIC "-//W3C//DTD SVG 20010904//EN"
 "http://www.w3.org/TR/2001/REC-SVG-20010904/DTD/svg10.dtd">
<svg version="1.0" xmlns="http://www.w3.org/2000/svg"
 width="512.000000pt" height="512.000000pt" viewBox="0 0 512.000000 512.000000"
 preserveAspectRatio="xMidYMid meet">

<g transform="translate(0.000000,512.000000) scale(0.100000,-0.100000)"
fill="#000000" stroke="none">
<path d="M2710 4334 c-30 -13 -66 -24 -80 -24 -14 0 -35 -3 -47 -6 l-23 -6 0
-457 0 -457 -57 -55 c-233 -224 -464 -342 -785 -399 -61 -10 -121 -26 -134
-35 -58 -38 -82 -132 -50 -193 28 -53 256 -262 456 -419 102 -80 336 -232 458
-298 l111 -60 1 -328 0 -328 -56 -25 c-153 -68 -448 -165 -659 -218 -320 -80
-579 -115 -900 -122 -132 -3 -254 -10 -272 -15 -18 -6 -45 -25 -61 -44 -66
-74 -44 -183 45 -226 44 -21 52 -22 272 -16 526 15 1032 114 1511 297 58 22
108 40 112 40 5 0 8 -76 8 -170 l0 -170 932 0 c927 0 932 0 975 21 71 34 100
110 70 182 -8 18 -183 303 -390 635 -208 331 -377 604 -377 606 0 2 30 6 66 9
109 10 164 62 164 154 0 48 5 40 -313 501 -130 189 -237 348 -237 353 0 5 7 9
15 9 29 0 76 31 95 63 31 50 26 113 -12 173 -77 119 -762 1054 -772 1053 -6
-1 -36 -12 -66 -25z m-155 -2062 c-20 -21 -572 375 -564 405 1 4 41 22 88 39
164 59 288 124 416 218 l60 44 3 -351 c1 -192 0 -352 -3 -355z"/>
<path d="M1942 1739 c-120 -61 -143 -232 -43 -322 138 -125 343 -23 329 163
-5 63 -28 104 -85 147 -50 38 -140 43 -201 12z"/>
</g>
</svg>
